<?xml version="1.0" standalone="no"?>
<!DOCTYPE svg PUBLIC "-//W3C//DTD SVG 20010904//EN"
 "http://www.w3.org/TR/2001/REC-SVG-20010904/DTD/svg10.dtd">
<svg version="1.0" xmlns="http://www.w3.org/2000/svg"
 width="1536.000000pt" height="1536.000000pt" viewBox="0 0 1536.000000 1536.000000"
 preserveAspectRatio="xMidYMid meet">
<metadata>
Created by potrace 1.14, written by Peter Selinger 2001-2017
</metadata>
<g transform="translate(0.000000,1536.000000) scale(0.100000,-0.100000)"
fill="#000000" stroke="none">
<path d="M5528 11255 c-2 -2 -34 -6 -73 -9 -38 -3 -89 -10 -112 -15 -24 -4
-43 -6 -43 -3 0 2 -6 -1 -13 -7 -8 -6 -16 -8 -19 -6 -3 3 -18 1 -34 -6 -16 -6
-38 -13 -48 -15 -39 -8 -123 -37 -184 -65 -35 -16 -65 -29 -67 -29 -6 0 -198
-113 -215 -127 -8 -6 -44 -35 -80 -64 -73 -59 -4251 -4235 -4290 -4287 -14
-19 -32 -41 -40 -50 -21 -23 -91 -129 -106 -162 -4 -8 -15 -26 -25 -40 -9 -14
-16 -27 -16 -30 0 -3 -11 -29 -26 -57 -14 -29 -24 -53 -20 -53 3 0 1 -6 -5
-12 -10 -13 -59 -161 -67 -202 -2 -11 -4 -21 -5 -21 -2 0 -7 -24 -14 -70 -4
-23 -9 -52 -12 -65 -10 -45 -12 -323 -2 -400 5 -41 16 -104 24 -140 8 -36 16
-74 18 -85 6 -28 34 -113 53 -155 47 -109 97 -210 105 -210 4 0 8 -6 8 -13 0
-8 30 -55 66 -106 73 -103 219 -254 309 -321 33 -25 61 -48 63 -52 2 -5 8 -8
12 -8 5 0 28 -13 52 -29 96 -64 295 -153 394 -176 10 -2 39 -9 64 -16 62 -15
67 -16 130 -24 30 -4 66 -9 80 -11 72 -14 295 -4 410 17 30 6 69 13 85 16 17
3 38 9 48 14 9 5 17 8 17 5 0 -6 129 38 195 67 62 27 198 97 205 106 8 10 54
38 64 39 5 0 12 4 15 9 3 4 33 31 66 58 33 28 70 59 83 70 39 33 4133 4130
4143 4146 5 8 9 10 9 5 0 -5 13 9 29 30 15 21 40 51 54 66 36 39 121 170 159
247 18 36 37 69 41 72 5 3 8 10 7 15 0 5 7 27 16 49 27 67 31 77 52 150 21 71
36 144 48 225 10 66 12 351 3 380 -5 14 -10 45 -13 70 -14 122 -88 343 -159
470 -83 151 -159 252 -279 373 -49 48 -88 85 -88 82 0 -3 -8 3 -18 13 -11 9
-32 26 -47 37 -16 11 -33 25 -40 31 -6 6 -25 19 -42 27 -17 9 -37 22 -45 29
-39 37 -293 144 -413 174 -56 14 -79 19 -145 29 -14 2 -25 4 -25 5 0 7 -290
21 -297 15z"/>
<path d="M9090 11248 c-110 -20 -240 -57 -291 -83 -16 -9 -29 -12 -29 -8 0 5
-4 3 -8 -3 -4 -6 -31 -21 -59 -34 -29 -13 -53 -27 -53 -32 0 -4 -6 -8 -12 -8
-7 0 -25 -10 -40 -23 -14 -12 -36 -29 -48 -37 -90 -62 -232 -216 -269 -292 -7
-15 -17 -28 -22 -28 -5 0 -9 -6 -9 -14 0 -8 -6 -21 -13 -28 -7 -7 -14 -15 -14
-18 -1 -3 -10 -25 -21 -50 -17 -38 -28 -63 -37 -90 -1 -3 -5 -12 -8 -20 -9
-21 -37 -124 -43 -153 -32 -180 -24 -375 22 -537 9 -30 17 -59 19 -65 3 -12
29 -73 57 -135 19 -40 99 -166 131 -207 40 -51 217 -220 217 -208 0 3 10 -4
23 -15 72 -67 324 -176 452 -195 94 -14 143 -18 225 -17 84 2 175 8 175 12 0
1 14 4 30 6 17 3 55 12 85 20 30 8 60 16 65 17 6 2 20 9 33 15 12 7 22 11 22
8 0 -17 222 109 295 168 107 86 266 273 292 343 3 10 11 21 15 24 5 3 10 12
12 20 1 8 9 28 18 44 12 23 46 115 53 145 1 3 4 12 8 20 3 8 8 26 10 40 3 14
8 36 11 50 18 71 25 269 12 355 -4 28 -9 66 -12 85 -3 19 -7 43 -10 52 -3 9
-6 25 -8 35 -4 20 -31 91 -52 140 -8 17 -14 34 -14 37 0 9 -92 168 -105 182
-5 6 -19 24 -30 40 -39 57 -192 200 -265 250 -129 86 -301 159 -419 179 -92
15 -128 18 -231 19 -63 1 -135 -2 -160 -6z"/>
<path d="M13627 11254 c-1 -1 -36 -5 -77 -8 -171 -12 -366 -67 -525 -148 -97
-49 -185 -102 -185 -110 0 -4 -5 -8 -11 -8 -6 0 -30 -15 -53 -32 -22 -18 -50
-40 -61 -48 -41 -32 -4285 -4279 -4285 -4289 0 -5 -11 -21 -25 -35 -14 -14
-25 -27 -25 -29 0 -2 -20 -34 -44 -70 -86 -132 -165 -315 -196 -457 -7 -30
-15 -62 -18 -70 -3 -8 -6 -24 -7 -35 -2 -11 -7 -49 -11 -85 -13 -97 -9 -313 6
-415 14 -94 16 -103 20 -107 2 -4 8 -26 15 -63 5 -28 13 -52 31 -100 4 -11 8
-22 8 -25 4 -18 54 -133 75 -170 13 -25 35 -66 49 -92 13 -25 33 -56 43 -67
10 -11 19 -23 19 -27 0 -20 178 -218 256 -284 178 -152 406 -270 624 -323 64
-16 83 -20 170 -34 67 -12 386 -8 455 6 94 17 105 20 125 26 10 3 27 7 37 9
83 16 291 105 369 158 23 15 46 28 50 28 5 0 25 14 44 30 19 16 38 30 43 30 4
0 16 8 26 17 10 10 45 41 76 68 52 45 4150 4142 4210 4208 14 16 45 54 68 85
23 32 44 59 47 62 20 20 118 203 150 280 30 72 68 186 76 225 34 176 38 213
38 360 0 151 -12 267 -39 365 -1 3 -5 19 -9 35 -4 17 -10 37 -13 45 -3 8 -8
24 -10 34 -7 37 -85 212 -129 289 -62 108 -153 226 -243 316 -102 101 -127
122 -229 191 -212 142 -455 231 -701 256 -58 6 -230 12 -234 8z"/>
<path d="M14060 6403 c0 -4 -21 -8 -48 -9 -65 -1 -187 -18 -222 -31 -8 -3 -22
-7 -31 -9 -72 -15 -306 -129 -347 -170 -7 -8 -18 -14 -23 -14 -18 0 -216 -206
-258 -270 -40 -60 -122 -213 -127 -235 -1 -5 -12 -41 -24 -80 -12 -38 -24 -79
-26 -90 -1 -11 -6 -33 -9 -50 -3 -16 -8 -46 -11 -65 -8 -48 -3 -315 6 -315 1
0 3 -9 5 -20 2 -11 7 -35 10 -53 36 -192 183 -453 330 -583 17 -15 43 -39 58
-53 32 -29 142 -106 153 -106 4 0 15 -6 23 -14 9 -8 23 -16 31 -18 8 -2 17 -6
20 -9 7 -8 148 -65 185 -74 17 -5 35 -9 40 -11 125 -33 364 -43 490 -19 88 17
228 61 280 88 22 12 43 21 47 22 3 0 50 29 103 63 108 71 238 194 306 292 50
71 133 220 123 220 -4 0 -2 6 4 13 22 26 66 183 79 277 9 69 9 259 0 325 -16
118 -79 314 -115 358 -8 9 -12 17 -9 17 10 0 -50 96 -102 164 -57 76 -174 191
-233 231 -116 78 -148 96 -248 138 -53 22 -122 46 -150 51 -14 3 -50 10 -80
16 -30 6 -90 13 -133 15 -43 2 -82 7 -87 10 -6 4 -10 3 -10 -2z"/>
<path d="M6028 6396 c-1 -2 -48 -6 -103 -9 -94 -6 -113 -8 -175 -23 -43 -9
-55 -12 -55 -14 0 -1 -7 -3 -15 -5 -104 -22 -380 -166 -380 -198 0 -6 -3 -8
-6 -4 -3 3 -22 -9 -41 -26 -184 -167 -296 -339 -358 -552 -63 -217 -64 -445
-2 -650 11 -38 21 -72 22 -75 15 -50 88 -191 134 -259 40 -58 122 -154 156
-183 11 -9 36 -30 55 -48 42 -38 187 -133 207 -136 8 -2 22 -9 31 -17 10 -8
64 -31 122 -50 119 -40 174 -52 285 -61 28 -3 52 -6 55 -7 3 -1 8 -1 13 0 4 1
47 3 95 5 48 3 111 9 140 15 71 14 174 41 187 49 5 4 15 7 22 8 21 3 171 82
225 118 103 68 211 171 283 270 25 33 50 67 56 74 15 18 109 218 109 232 0 5
4 18 9 28 13 24 40 141 48 210 13 103 4 357 -13 384 -3 5 -7 19 -9 31 -3 31
-50 167 -77 224 -27 59 -80 147 -90 151 -4 2 -8 8 -8 14 0 23 -119 153 -225
246 -88 77 -330 199 -425 215 -14 2 -32 7 -40 10 -15 6 -58 12 -155 23 -27 3
-55 7 -62 9 -6 2 -13 2 -15 1z"/>
</g>
</svg>
