<svg width="12" height="14" viewBox="0 0 12 14" fill="#666977" xmlns="http://www.w3.org/2000/svg">
<path fill-rule="evenodd" clip-rule="evenodd" d="M7.57009 0C7.84882 0 8.07477 0.208934 8.07477 0.466667V3.37037C8.07477 3.43913 8.10431 3.50507 8.15689 3.55369C8.20947 3.60232 8.28078 3.62963 8.35514 3.62963H11.4953C11.7741 3.62963 12 3.83856 12 4.0963C12 4.35403 11.7741 4.56296 11.4953 4.56296H8.35514C8.01308 4.56296 7.68504 4.43731 7.44317 4.21366C7.2013 3.99001 7.06542 3.68667 7.06542 3.37037V0.466667C7.06542 0.208934 7.29137 0 7.57009 0Z" fill="#666977"/>
<path fill-rule="evenodd" clip-rule="evenodd" d="M2.07477 0.933333C1.7922 0.933333 1.52121 1.03713 1.3214 1.22189C1.1216 1.40665 1.00935 1.65723 1.00935 1.91852V12.0815C1.00935 12.3428 1.1216 12.5934 1.3214 12.7781C1.52121 12.9629 1.7922 13.0667 2.07477 13.0667H9.92523C10.2078 13.0667 10.4788 12.9629 10.6786 12.7781C10.8784 12.5934 10.9907 12.3428 10.9907 12.0815V4.2896L7.36105 0.933333H2.07477ZM0.607685 0.561921C0.996779 0.202129 1.5245 0 2.07477 0H7.57009C7.70394 0 7.83231 0.0491665 7.92695 0.136684L11.8522 3.76631C11.9468 3.85383 12 3.97253 12 4.0963V12.0815C12 12.5903 11.7814 13.0783 11.3923 13.4381C11.0032 13.7979 10.4755 14 9.92523 14H2.07477C1.5245 14 0.996779 13.7979 0.607685 13.4381C0.218591 13.0783 0 12.5903 0 12.0815V1.91852C0 1.4097 0.218591 0.921713 0.607685 0.561921Z" fill="#666977"/>
<path fill-rule="evenodd" clip-rule="evenodd" d="M3.14 3.37046C3.14 3.11273 3.36595 2.90379 3.64467 2.90379H4.42971C4.70844 2.90379 4.93439 3.11273 4.93439 3.37046C4.93439 3.62819 4.70844 3.83713 4.42971 3.83713H3.64467C3.36595 3.83713 3.14 3.62819 3.14 3.37046Z" fill="#666977"/>
<path fill-rule="evenodd" clip-rule="evenodd" d="M3.14 7.72601C3.14 7.46828 3.36595 7.25935 3.64467 7.25935H8.35495C8.63367 7.25935 8.85962 7.46828 8.85962 7.72601C8.85962 7.98375 8.63367 8.19268 8.35495 8.19268H3.64467C3.36595 8.19268 3.14 7.98375 3.14 7.72601Z" fill="#666977"/>
<path fill-rule="evenodd" clip-rule="evenodd" d="M6.28057 10.6295C6.28057 10.3718 6.50652 10.1629 6.78524 10.1629H8.35533C8.63405 10.1629 8.86 10.3718 8.86 10.6295C8.86 10.8873 8.63405 11.0962 8.35533 11.0962H6.78524C6.50652 11.0962 6.28057 10.8873 6.28057 10.6295Z" fill="#666977"/>
<path fill-rule="evenodd" clip-rule="evenodd" d="M3.14 5.46667C3.14 5.20893 3.36595 5 3.64467 5H4.42971C4.70844 5 4.93439 5.20893 4.93439 5.46667C4.93439 5.7244 4.70844 5.93333 4.42971 5.93333H3.64467C3.36595 5.93333 3.14 5.7244 3.14 5.46667Z" fill="#666977"/>
</svg>
