<?xml version="1.0" encoding="utf-8"?>
<svg version="1.1" xmlns="http://www.w3.org/2000/svg" xmlns:xlink="http://www.w3.org/1999/xlink"
	 viewBox="0 0 24 24">
	<path d="M15 12c2.19-.03 3.96-1.83 3.93-4.02C18.9 5.76 17.1 4.02 14.91 4.05s-3.96 1.83-3.93 4.02C11.01 10.26 12.81 12.03 15 12zM14.91 6.03c1.08 0 2.01.87 2.01 1.95s-.87 2.01-1.95 2.01-2.01-.87-2.01-1.95S13.83 6.06 14.91 6.03zM15 12.99c-2.64.03-7.95 1.44-7.89 4.08l.03 1.98c0 .54.45 .99 1.02.99l13.92-.18c.54 0 .99-.45.99-1.02l-.03-1.98C22.98 14.22 17.67 12.96 15 12.99zM21.03 17.88l-11.94.15v-.99c.18-.72 3.24-2.04 5.94-2.07 2.67-.03 5.79 1.2 6 1.92V17.88zM6 9.99v-2.01c0-.54-.45-.99-.99-.99s-.99.45-.99.99v2.01H2.01c-.54 0-.99.45-.99.99s.45.99 .99.99h2.01v2.01c0 .54.45 .99.99 .99s.99-.45.99-.99V12h2.01c.54 0 .99-.45.99-.99s-.45-.99-.99-.99H6V9.99z"/>
</svg>
