<svg version="1.1" id="Layer_1" xmlns="http://www.w3.org/2000/svg" xmlns:xlink="http://www.w3.org/1999/xlink" x="0px" y="0px"
	 viewBox="0 0 24 24" style="enable-background:new 0 0 24 24;" xml:space="preserve">
<style type="text/css">
	.st0{fill:none;}
</style>
<path class="st0" d="M0,0h24v24H0V0z"/>
<path d="M15.9,15.2l-3.4-2V8.7c0-0.4-0.3-0.7-0.7-0.7h-0.1C11.3,8,11,8.3,11,8.7v4.7c0,0.4,0.2,0.7,0.5,0.9l3.7,2.2
	c0.3,0.2,0.8,0.1,1-0.2C16.3,15.9,16.2,15.4,15.9,15.2z M21.2,5l-3.1-2.6c-0.4-0.3-1-0.3-1.4,0.1c-0.4,0.4-0.3,1,0.1,1.4l3.1,2.6
	c0.4,0.3,1,0.3,1.4-0.1C21.7,6,21.6,5.4,21.2,5z M4.1,6.6L7.2,4c0.4-0.4,0.5-1,0.1-1.4C7,2.2,6.3,2.1,5.9,2.5L2.8,5
	C2.4,5.4,2.3,6,2.7,6.4C3,6.8,3.7,6.9,4.1,6.6z M12,4c-5,0-9,4-9,9s4,9,9,9s9-4,9-9S17,4,12,4z M12,20c-3.9,0-7-3.1-7-7s3.1-7,7-7
	s7,3.1,7,7S15.9,20,12,20z"/>
</svg>
