<svg version="1.1" id="Layer_1" xmlns="http://www.w3.org/2000/svg" xmlns:xlink="http://www.w3.org/1999/xlink" x="0px" y="0px"
	 viewBox="0 0 24 24" style="enable-background:new 0 0 24 24;" xml:space="preserve">
<path id="path-1" d="M21.4,7.5C21.8,7.9,22,8.4,22,8.9v11.2c0,1.1-0.9,2-2,2h-6c-0.5,0-1-0.5-1-1s0.5-1,1-1h5c0.6,0,1-0.5,1-1v-10
	h-4c-0.6,0-1-0.4-1-1v-4H8c-0.5,0-1,0.5-1,1v4c0,0.5-0.4,1-1,1c-0.5,0-1-0.5-1-1v-5c0-1.1,0.9-2,2-2h8.2c0.5,0,1,0.2,1.4,0.6
	L21.4,7.5z M8,11.1c2.7-0.3,5,1.8,5,4.5c0,2.5-2,4.5-4.5,4.5c-0.9,0-1.7-0.3-2.4-0.7l-2.4,2.4c-0.4,0.4-1,0.4-1.4,0
	c-0.4-0.4-0.4-1,0-1.4L4.7,18c-0.5-0.8-0.8-1.7-0.7-2.7C4.2,13.1,5.9,11.3,8,11.1z M8.5,18.1c1.4,0,2.5-1.1,2.5-2.5
	s-1.1-2.5-2.5-2.5S6,14.2,6,15.6S7.1,18.1,8.5,18.1z"/>
</svg>
