<?xml version="1.0" encoding="utf-8"?>
<!-- Generator: Adobe Illustrator 23.0.3, SVG Export Plug-In . SVG Version: 6.00 Build 0)  -->
<svg version="1.1" xmlns="http://www.w3.org/2000/svg" xmlns:xlink="http://www.w3.org/1999/xlink" x="0px" y="0px"
	 viewBox="0 0 24 24" style="enable-background:new 0 0 24 24;" xml:space="preserve">
<style type="text/css">
	.st0{fill:none;}
</style>
<g id="Layer_1">
	<path class="st0" d="M0,0h24v24H0V0z"/>
	<path d="M13.9,8.7L12,10.6l-1.9-1.9c-0.4-0.4-1-0.4-1.4,0s-0.4,1,0,1.4l1.9,1.9l-1.9,1.9c-0.4,0.4-0.4,1,0,1.4s1,0.4,1.4,0l1.9-1.9
		l1.9,1.9c0.4,0.4,1,0.4,1.4,0s0.4-1,0-1.4L13.4,12l1.9-1.9c0.4-0.4,0.4-1,0-1.4C14.9,8.3,14.3,8.3,13.9,8.7z"/>
	<g>
		<path d="M12,22c-0.1,0-0.1,0-0.2,0C8.7,21.3,3,18.4,3,12V5.5c0-1.1,0.9-1.8,1.8-2l7-1.5c0.1,0,0.3,0,0.4,0l7,1.5
			c1,0.2,1.8,0.9,1.8,2V12c0,6.4-5.8,9.3-8.8,10C12.1,22,12.1,22,12,22z M12,4L5.1,5.5c-0.1,0-0.1,0-0.2,0L5,12c0,5.8,5.8,7.7,7,8
			c1.2-0.3,7-2.1,7-8V5.5c-0.1,0-0.1,0-0.1,0L12,4z"/>
	</g>
</g>
<g id="Layer_2">
</g>
</svg>
