<?xml version="1.0" encoding="utf-8"?>
<svg version="1.1" xmlns="http://www.w3.org/2000/svg" xmlns:xlink="http://www.w3.org/1999/xlink" viewBox="0 0 24 24">
<path d="M9.12 12.15c1.95 0 3.54-1.59 3.54-3.54s-1.59-3.54-3.54-3.54-3.54 1.59-3.54 3.54S7.17 12.15 9.12 12.15zM9.12 7.08c.84 0 1.53.69 1.53 1.53s-.69 1.53-1.53 1.53-1.53-.69-1.53-1.53S8.28 7.08 9.12 7.08zM9.12 13.92c-2.37 0-7.08 1.17-7.08 3.54v.75c0 .57.45 1.02 1.02 1.02h12.15c.57 0 1.02-.45 1.02-1.02v-.75C16.2 15.12 11.49 13.92 9.12 13.92zM4.38 17.22c.84-.6 2.91-1.26 4.71-1.26s3.87.69 4.71 1.26H4.38zM16.23 13.98c1.17.84 1.98 1.98 1.98 3.48v1.77h3.03c.57 0 1.02-.45 1.02-1.02v-.75C22.26 15.42 18.72 14.25 16.23 13.98zM15.18 12.15c1.95 0 3.54-1.59 3.54-3.54s-1.59-3.54-3.54-3.54c-.54 0-1.05.12-1.53.36 .63.9 1.02 2.01 1.02 3.18s-.36 2.28-1.02 3.18C14.13 12.03 14.64 12.15 15.18 12.15z"/>
</svg>
