<?xml version="1.0" encoding="utf-8"?>
<!-- Generator: Adobe Illustrator 23.0.3, SVG Export Plug-In . SVG Version: 6.00 Build 0)  -->
<svg version="1.1" id="Layer_1" xmlns="http://www.w3.org/2000/svg" xmlns:xlink="http://www.w3.org/1999/xlink" x="0px" y="0px"
	 viewBox="0 0 24 24" style="enable-background:new 0 0 24 24;" xml:space="preserve">
<style type="text/css">
	.st0{fill:none;}
</style>
<path class="st0" d="M0,0h24v24H0V0z"/>
<g>
	<path d="M20,2H4C2.9,2,2,2.9,2,4v18l4-4h14c1.1,0,2-0.9,2-2V4C22,2.9,21.1,2,20,2z M20,15c0,0.5-0.5,1-1,1H6l-2,2V5
		c0-0.5,0.5-1,1-1h14c0.5,0,1,0.5,1,1V15z"/>
	<rect x="11" y="12" width="2" height="2"/>
	<path d="M12,6c-0.5,0-1,0.5-1,1v2c0,0.5,0.5,1,1,1s1-0.5,1-1V7C13,6.5,12.5,6,12,6z"/>
</g>
</svg>
