<svg width="14" height="15" viewBox="0 0 14 15" fill="#666977" xmlns="http://www.w3.org/2000/svg">
<path d="M11.9014 11.6633L10.713 10.4749C10.6911 10.453 10.6623 10.4451 10.6395 10.4259C11.1033 9.73107 11.3755 8.89799 11.3755 7.99927C11.3755 7.1023 11.1033 6.26834 10.6395 5.57351C10.6623 5.55514 10.6911 5.54639 10.713 5.52451L11.9014 4.33613C12.6671 5.35912 13.1256 6.6245 13.1256 7.99927C13.1256 9.37579 12.6671 10.6412 11.9014 11.6633ZM7 14.1249C5.62436 14.1249 4.35897 13.6664 3.33687 12.9007L4.52524 11.7123C4.54712 11.6904 4.55499 11.6624 4.57337 11.6388C5.26819 12.1026 6.10216 12.3747 7 12.3747C7.89784 12.3747 8.73181 12.1026 9.42663 11.6388C9.44501 11.6624 9.45376 11.6904 9.47563 11.7123L10.6631 12.9007C9.64103 13.6664 8.37564 14.1249 7 14.1249ZM2.09861 11.6633C1.33378 10.6412 0.874359 9.37579 0.874359 7.99927C0.874359 6.6245 1.33378 5.35912 2.09861 4.33613L3.28786 5.52451C3.30886 5.54639 3.33774 5.55514 3.36137 5.57351C2.8967 6.26834 2.62454 7.1023 2.62454 7.99927C2.62454 8.89799 2.8967 9.73107 3.36137 10.4259C3.33774 10.4451 3.30886 10.453 3.28786 10.4749L2.09861 11.6633ZM7 11.4996C5.06692 11.4996 3.49963 9.93322 3.49963 7.99927C3.49963 6.06619 5.06692 4.4989 7 4.4989C8.93308 4.4989 10.5004 6.06619 10.5004 7.99927C10.5004 9.93322 8.93308 11.4996 7 11.4996ZM7 1.87363C8.37564 1.87363 9.64103 2.33305 10.6631 3.09875L9.47563 4.28713C9.45376 4.30901 9.44501 4.33701 9.42663 4.36064C8.73181 3.89684 7.89784 3.62381 7 3.62381C6.10216 3.62381 5.26819 3.89684 4.57337 4.36064C4.55499 4.33701 4.54712 4.30901 4.52524 4.28713L3.33687 3.09875C4.35897 2.33305 5.62436 1.87363 7 1.87363ZM7 0.998535C3.13385 0.998535 -0.000732422 4.13399 -0.000732422 7.99927C-0.000732422 11.8663 3.13385 15 7 15C10.8662 15 14.0007 11.8663 14.0007 7.99927C14.0007 4.13399 10.8662 0.998535 7 0.998535Z" fill="#666977"/>
</svg>
