<svg width="14" height="14" viewBox="0 0 14 14" fill="#666977" xmlns="http://www.w3.org/2000/svg">
<path fill="#666977" fill-rule="evenodd" clip-rule="evenodd" d="M9.54524 0C9.89669 0 10.1816 0.298477 10.1816 0.666667C10.1816 1.03486 9.89669 1.33333 9.54524 1.33333H1.2727V6.66667C1.2727 7.03486 0.987796 7.33333 0.63635 7.33333C0.284903 7.33333 0 7.03486 0 6.66667V1.33333C0 0.979711 0.134088 0.640573 0.372765 0.390524C0.611442 0.140476 0.935158 0 1.2727 0H9.54524ZM3.81841 2.6665H12.7273C13.0648 2.6665 13.3886 2.80698 13.6272 3.05703C13.8659 3.30708 14 3.64622 14 3.99984V10.6665C14 11.0201 13.8659 11.3593 13.6272 11.6093C13.3886 11.8594 13.0648 11.9998 12.7273 11.9998H9.21465V13.0132H9.711C9.97107 13.0132 10.1819 13.234 10.1819 13.5065C10.1819 13.779 9.97107 13.9998 9.711 13.9998H6.83152C6.57321 13.9998 6.36381 13.7805 6.36381 13.5098C6.36381 13.2392 6.57321 13.0198 6.83152 13.0198H7.33742V11.9998H3.81841C3.48087 11.9998 3.15715 11.8594 2.91847 11.6093C2.6798 11.3593 2.54571 11.0201 2.54571 10.6665V3.99984C2.54571 3.64622 2.6798 3.30708 2.91847 3.05703C3.15715 2.80698 3.48087 2.6665 3.81841 2.6665ZM3.81841 10.6665H12.7273V3.99984H3.81841V10.6665Z" />
</svg>
