<svg version="1.1" id="Layer_1" xmlns="http://www.w3.org/2000/svg" xmlns:xlink="http://www.w3.org/1999/xlink" x="0px" y="0px"
	 viewBox="0 0 24 24" style="enable-background:new 0 0 24 24;" xml:space="preserve">
<style type="text/css">
	.st0{fill:none;}
</style>
<path d="M8,2C6.9,2,6,2.9,6,4v3.2c0,0.5,0.2,1,0.6,1.4L10,12l-3.4,3.4C6.2,15.8,6,16.3,6,16.8V20c0,1.1,0.9,2,2,2h8c1.1,0,2-0.9,2-2
	v-3.2c0-0.5-0.2-1-0.6-1.4L14,12l3.4-3.4C17.8,8.2,18,7.7,18,7.2V4c0-1.1-0.9-2-2-2H8z M16,16.5V19c0,0.5-0.4,1-1,1H9
	c-0.6,0-1-0.5-1-1v-2.5l4-4L16,16.5z M12,11.5l-4-4V5c0-0.6,0.4-1,1-1h6c0.6,0,1,0.4,1,1v2.5L12,11.5z"/>
</svg>
