<?xml version="1.0" encoding="utf-8"?>
<!-- Generator: Adobe Illustrator 24.0.3, SVG Export Plug-In . SVG Version: 6.00 Build 0)  -->
<svg version="1.1" id="Layer_1" xmlns="http://www.w3.org/2000/svg" xmlns:xlink="http://www.w3.org/1999/xlink" x="0px" y="0px"
	 viewBox="0 0 24 24" style="enable-background:new 0 0 24 24;" xml:space="preserve">
<style type="text/css">
	.st0{fill:none;}
	.st1{fill:#FFFFFF;}
</style>
<g id="Group-15">
	<g id="icon_x2F_approve_x5F_fill">
		<polygon id="Path" class="st0" points="0,0 24,0 24,24 0,24 		"/>
		<g id="Color-_x2F_-UI-_x2F_-Grey-4-_x2F_-Grey-4---06-_x28_original_x29_" transform="translate(2.000000, 2.000000)">
			<g id="Mask">
				<path id="path-1_1_" d="M10,0C4.5,0,0,4.5,0,10s4.5,10,10,10s10-4.5,10-10S15.5,0,10,0z"/>
			</g>
		</g>
	</g>
	<path id="M" class="st1" d="M9,16.2c0.5,0,0.7-0.3,0.7-0.8v-4.7l1.3,3.2c0.1,0.3,0.2,0.6,0.9,0.6c0.7,0,0.8-0.3,0.9-0.6l1.3-3.3
		v4.8c0,0.5,0.2,0.8,0.7,0.8h0.3c0.5,0,0.7-0.3,0.7-0.8V8.9C16,8.3,15.7,8,15.1,8h-0.5c-0.5,0-0.7,0.1-0.9,0.7L12,12.5l-1.6-3.8
		C10.2,8.2,10,8,9.4,8H8.9C8.3,8,8,8.3,8,8.9v6.4c0,0.5,0.2,0.8,0.7,0.8H9z"/>
</g>
</svg>
