<?xml version="1.0" encoding="utf-8"?>
<!-- Generator: Adobe Illustrator 23.0.3, SVG Export Plug-In . SVG Version: 6.00 Build 0)  -->
<svg version="1.1" id="Layer_1" xmlns="http://www.w3.org/2000/svg" xmlns:xlink="http://www.w3.org/1999/xlink" x="0px" y="0px"
	 viewBox="0 0 24 24" style="enable-background:new 0 0 24 24;" xml:space="preserve">
<style type="text/css">
	.st0{fill:none;}
</style>
<path class="st0" d="M0.1,0h24v24h-24V0z"/>
<g>
	<path d="M12.1,2c-5.5,0-10,4.5-10,10s4.5,10,10,10s10-4.5,10-10S17.6,2,12.1,2z M12.1,20c-4.4,0-8-3.6-8-8s3.6-8,8-8s8,3.6,8,8
		S16.5,20,12.1,20z"/>
	<path d="M12.3,11.3c-1.5-0.4-2-0.8-2-1.4c0-0.7,0.7-1.2,1.8-1.2c0.9,0,1.4,0.4,1.6,0.9C13.7,9.8,14,10,14.2,10h0.2
		c0.4,0,0.8-0.4,0.6-0.8c-0.3-0.8-0.9-1.4-2-1.7V7c0-0.6-0.4-1-1-1s-1,0.4-1,1v0.4C9.8,7.7,8.8,8.6,8.8,9.9c0,1.5,1.3,2.3,3.1,2.7
		c1.7,0.4,2,1,2,1.6c0,0.5-0.3,1.2-1.8,1.2c-1.1,0-1.7-0.4-1.9-1C10.1,14.2,9.9,14,9.6,14H9.4c-0.4,0-0.8,0.5-0.6,0.9
		c0.4,0.9,1.3,1.5,2.3,1.7V17c0,0.6,0.4,1,1,1s1-0.4,1-1v-0.4c1.3-0.2,2.3-1,2.3-2.4C15.4,12.3,13.8,11.7,12.3,11.3z"/>
</g>
</svg>
