<?xml version="1.0" encoding="utf-8"?>
<!-- Generator: Adobe Illustrator 23.0.3, SVG Export Plug-In . SVG Version: 6.00 Build 0)  -->
<svg version="1.1" id="Layer_1" xmlns="http://www.w3.org/2000/svg" xmlns:xlink="http://www.w3.org/1999/xlink" x="0px" y="0px"
	 viewBox="0 0 24 24" style="enable-background:new 0 0 24 24;" xml:space="preserve">
<style type="text/css">
	.st0{fill:none;}
</style>
<path class="st0" d="M24,24H0V0h24"/>
<path d="M9.8,9.3h7c0.5,0,1-0.4,1-1s-0.5-1-1-1h-7c-0.6,0-1,0.4-1,1S9.2,9.3,9.8,9.3z M16.8,15.3h-7c-0.6,0-1,0.5-1,1
	c0,0.5,0.4,1,1,1h7c0.5,0,1-0.5,1-1C17.8,15.8,17.3,15.3,16.8,15.3z M16.8,11.3h-7c-0.6,0-1,0.4-1,1s0.4,1,1,1h7c0.5,0,1-0.4,1-1
	S17.3,11.3,16.8,11.3z M7.9,15H6.6c-0.2,0-0.3,0.1-0.3,0.3s0.1,0.3,0.3,0.3h1V16H7.2c-0.2,0-0.3,0.1-0.3,0.3c0,0.2,0.1,0.3,0.3,0.3
	h0.3V17h-1c-0.2,0-0.3,0.1-0.3,0.3c0,0.2,0.1,0.3,0.3,0.3h1.3c0.2,0,0.3-0.1,0.3-0.3v-2C8.2,15.1,8.1,15,7.9,15z M6.6,8h0.3v1.7
	C6.9,9.9,7,10,7.2,10s0.3-0.1,0.3-0.3v-2c0-0.2-0.1-0.3-0.3-0.3H6.6c-0.2,0-0.3,0.1-0.3,0.3C6.2,7.9,6.4,8,6.6,8z M7.9,11H6.6
	c-0.2,0-0.3,0.1-0.3,0.3s0.1,0.3,0.3,0.3h0.9L6.3,13c-0.1,0.1-0.1,0.1-0.1,0.2v0.1c0,0.2,0.1,0.3,0.3,0.3h1.3c0.2,0,0.3-0.1,0.3-0.3
	s0-0.3-0.2-0.3H7.1l1.1-1.3c0.1-0.1,0.1-0.1,0.1-0.2v-0.1C8.2,11.1,8.1,11,7.9,11z"/>
<path d="M19,3h-2.5c0,0,0-0.4,0-1s-0.5-1-1-1h-7c-0.6,0-1,0.4-1,1s0,1,0,1H5C3.9,3,3,3.9,3,5v14c0,1.1,0.9,2,2,2h14c1.1,0,2-0.9,2-2
	V5C21,3.9,20.1,3,19,3z M19,18c0,0.5-0.5,1-1,1H6c-0.6,0-1-0.5-1-1V6c0-0.6,0.4-1,1-1h12c0.6,0,1,0.5,1,1V18z"/>
</svg>
