<?xml version="1.0" encoding="utf-8"?>
<!-- Generator: Adobe Illustrator 23.1.1, SVG Export Plug-In . SVG Version: 6.00 Build 0)  -->
<svg version="1.1" id="Layer_1" xmlns="http://www.w3.org/2000/svg" xmlns:xlink="http://www.w3.org/1999/xlink" x="0px" y="0px"
	 viewBox="0 0 20 20" style="enable-background:new 0 0 20 20;" xml:space="preserve">
<g>
	<g id="Mask">
		<path d="M20,10c0,5.5-4.5,10-10,10S0,15.5,0,10S4.5,0,10,0S20,4.5,20,10z M4,11.5c0.8,0,1.5-0.7,1.5-1.5S4.8,8.5,4,8.5
			S2.5,9.2,2.5,10S3.2,11.5,4,11.5z M10,11.5c0.8,0,1.5-0.7,1.5-1.5S10.8,8.5,10,8.5S8.5,9.2,8.5,10S9.2,11.5,10,11.5z M16,11.5
			c0.8,0,1.5-0.7,1.5-1.5S16.8,8.5,16,8.5c-0.8,0-1.5,0.7-1.5,1.5S15.2,11.5,16,11.5z"/>
	</g>
</g>
</svg>
