<?xml version="1.0" encoding="UTF-8"?>
<svg xmlns="http://www.w3.org/2000/svg" xmlns:xlink="http://www.w3.org/1999/xlink" width="24px" height="24px"
    viewBox="0 0 24 24" version="1.1">
    <g id="surface1">
        <path style=" stroke:none;fill-rule:evenodd;fill:rgb(32.156863%,32.156863%,32.156863%);fill-opacity:1;"
            d="M 8.398438 2.398438 C 7.445312 2.398438 6.53125 2.777344 5.855469 3.453125 C 5.179688 4.128906 4.800781 5.046875 4.800781 6 C 4.800781 6.953125 5.179688 7.871094 5.855469 8.546875 C 6.53125 9.222656 7.445312 9.601562 8.398438 9.601562 C 9.355469 9.601562 10.269531 9.222656 10.945312 8.546875 C 11.621094 7.871094 12 6.953125 12 6 C 12 5.046875 11.621094 4.128906 10.945312 3.453125 C 10.269531 2.777344 9.355469 2.398438 8.398438 2.398438 Z M 4.15625 1.757812 C 5.28125 0.632812 6.808594 0 8.398438 0 C 9.992188 0 11.515625 0.632812 12.644531 1.757812 C 13.769531 2.882812 14.398438 4.410156 14.398438 6 C 14.398438 7.589844 13.769531 9.117188 12.644531 10.242188 C 11.515625 11.367188 9.992188 12 8.398438 12 C 6.808594 12 5.28125 11.367188 4.15625 10.242188 C 3.03125 9.117188 2.398438 7.589844 2.398438 6 C 2.398438 4.410156 3.03125 2.882812 4.15625 1.757812 Z M 8.398438 15.601562 C 6.808594 15.601562 5.28125 16.230469 4.15625 17.355469 C 3.03125 18.484375 2.398438 20.007812 2.398438 21.601562 L 14.398438 21.601562 C 14.398438 20.007812 13.769531 18.484375 12.644531 17.355469 C 11.515625 16.230469 9.992188 15.601562 8.398438 15.601562 Z M 2.460938 15.660156 C 4.035156 14.085938 6.171875 13.199219 8.398438 13.199219 C 10.628906 13.199219 12.765625 14.085938 14.339844 15.660156 C 15.914062 17.234375 16.800781 19.371094 16.800781 21.601562 L 16.800781 22.800781 C 16.800781 23.460938 16.261719 24 15.601562 24 L 1.199219 24 C 0.539062 24 0 23.460938 0 22.800781 L 0 21.601562 C 0 19.371094 0.886719 17.234375 2.460938 15.660156 Z M 2.460938 15.660156 " />
        <path style=" stroke:none;fill-rule:evenodd;fill:rgb(32.156863%,32.156863%,32.156863%);fill-opacity:1;"
            d="M 19.8125 8.429688 C 19.957031 7.957031 20.445312 7.691406 20.902344 7.839844 C 22.605469 8.398438 23.839844 10.046875 23.839844 12 C 23.839844 12.9375 23.554688 13.808594 23.070312 14.519531 C 23.332031 14.671875 23.507812 14.964844 23.507812 15.300781 C 23.507812 15.796875 23.121094 16.199219 22.640625 16.199219 L 20.640625 16.199219 C 20.214844 16.199219 19.847656 15.875 19.785156 15.4375 C 19.71875 14.996094 19.972656 14.574219 20.382812 14.441406 C 21.382812 14.117188 22.105469 13.144531 22.105469 12 C 22.105469 10.855469 21.382812 9.886719 20.382812 9.558594 C 19.925781 9.410156 19.671875 8.90625 19.8125 8.429688 Z M 19.8125 8.429688 " />
        <path style=" stroke:none;fill-rule:evenodd;fill:rgb(32.156863%,32.156863%,32.156863%);fill-opacity:1;"
            d="M 18.382812 16.160156 C 16.679688 15.605469 15.441406 13.953125 15.441406 12 C 15.441406 11.0625 15.726562 10.191406 16.214844 9.484375 C 15.953125 9.328125 15.773438 9.035156 15.773438 8.699219 C 15.773438 8.203125 16.164062 7.800781 16.640625 7.800781 L 18.640625 7.800781 C 19.070312 7.800781 19.433594 8.125 19.5 8.5625 C 19.5625 9.003906 19.308594 9.425781 18.902344 9.558594 C 17.902344 9.886719 17.175781 10.855469 17.175781 12 C 17.175781 13.144531 17.902344 14.117188 18.902344 14.441406 C 19.359375 14.589844 19.613281 15.09375 19.46875 15.570312 C 19.324219 16.042969 18.839844 16.308594 18.382812 16.160156 Z M 18.382812 16.160156 " />
    </g>
</svg>