<svg version="1.1" id="Layer_1" xmlns="http://www.w3.org/2000/svg" xmlns:xlink="http://www.w3.org/1999/xlink" x="0px" y="0px"
	 viewBox="0 0 24 24" style="enable-background:new 0 0 24 24;" xml:space="preserve">
<style type="text/css">
	.st0{fill-rule:evenodd;clip-rule:evenodd;}
</style>
<path id="Path" class="st0" d="M15.2,6.5L12,9.6L8.8,6.5c-0.7-0.7-1.7-0.7-2.4,0s-0.7,1.7,0,2.4L9.6,12l-3.2,3.2
	c-0.7,0.7-0.7,1.7,0,2.4s1.7,0.7,2.4,0l3.2-3.2l3.2,3.2c0.7,0.7,1.7,0.7,2.4,0s0.7-1.7,0-2.4L14.4,12l3.2-3.2c0.7-0.7,0.7-1.7,0-2.4
	C16.9,5.9,15.8,5.9,15.2,6.5z"/>
</svg>
