<svg version="1.1" id="Layer_1" xmlns="http://www.w3.org/2000/svg" xmlns:xlink="http://www.w3.org/1999/xlink" x="0px" y="0px"
	 viewBox="0 0 24 24" style="enable-background:new 0 0 24 24;" xml:space="preserve">
<g id="Re-run-audit">
	<path id="Shape" d="M12,2.6v-2c0-0.5-0.6-0.8-1-0.4L7.9,3.4c-0.2,0.2-0.2,0.6,0,0.8L11,7.4c0.4,0.4,1,0.1,1-0.4v-2
		c3.7,0,6.8,3.1,6.8,6.9c0,0.9-0.2,1.8-0.5,2.6c-0.2,0.4,0,0.9,0.3,1.2c0.6,0.6,1.5,0.4,1.8-0.4c0.4-1,0.6-2.2,0.6-3.4
		C21,6.7,17,2.6,12,2.6z M12,18.6c-3.7,0-6.8-3.1-6.8-6.9c0-0.9,0.2-1.8,0.5-2.6c0.2-0.4,0-0.9-0.3-1.2C4.9,7.4,3.9,7.6,3.6,8.4
		C3.2,9.4,3,10.6,3,11.8c0,5.1,4,9.1,9,9.1v2c0,0.5,0.6,0.8,1,0.4l3.1-3.2c0.2-0.2,0.2-0.6,0-0.8L13,16.2c-0.3-0.4-1-0.1-1,0.4V18.6
		z"/>
</g>
</svg>
