<?xml version="1.0" encoding="utf-8"?>
<svg version="1.1" xmlns="http://www.w3.org/2000/svg" xmlns:xlink="http://www.w3.org/1999/xlink" viewBox="0 0 24 24">
	<path fill="#57A421" d="M22 12c0 5.467-4.533 10-10 10S2 17.467 2 12 6.533 2 12 2 22 6.533 22 12zm-11.2 5.333 7.467-7.467c.267-.267.267-.667 0-.933l-.933-.933c-.267-.267-.667-.267-.933 0L10.4 14 7.6 11.2c-.267-.267-.667-.267-.933 0l-.933.933c-.267.267-.267.667 0 .933l4.133 4.133c.267.4 .667.4 .933.133z"/>
	<circle fill="#A50015" cx="6.5" cy="4.5" r="3.2"/>
</svg>